<svg version="1.1" id="Layer_1" xmlns="http://www.w3.org/2000/svg" xmlns:xlink="http://www.w3.org/1999/xlink" x="0px" y="0px"
	 viewBox="-1.000 -1.000 614.000 794.000" xml:space="preserve">
<g>
	<path fill="#1B1B1B" d="M577.1,703H460c-13.9,0-25.2-11.3-25.2-25.2V489.5c0-19.3-3.2-34.3-9.4-43.4c-3.5-5.1-9.5-11.1-24.8-11.1
		c-22.4,0-32.7,16.9-36.7,27.1c0,0,0,0.1-0.1,0.1c-0.6,1.5-2,6.2-2,19V678c0,13.9-11.3,25.2-25.2,25.2H219.6
		c-6.6,0-13.1-2.6-17.8-7.4c-4.7-4.7-7.3-11.2-7.3-17.9c0.5-120.6,1.2-355.4,0-381.1c-0.3-6.8,2.2-13.6,6.9-18.5s11.4-7.8,18.2-7.8
		h117.1c10.3,0,19,6.1,23,14.9c23.2-15.4,50.9-23.2,82.5-23.2c46.9,0,86.6,16.2,114.9,46.8c30,32.5,45.2,78.5,45.2,136.9V678
		C602.3,691.9,591,703,577.1,703z M485.2,652.7h66.7v-207c0-44.6-11-80.1-31.8-102.8c-18.4-20-45.4-30.6-77.8-30.6
		c-45.2,0-67,21.1-81.9,43.1c-3.6,9.6-12.8,16.3-23.6,16.3H336c-9.2,0-17.5-4.9-21.9-12.9c-3.2-5.7-4-12.3-2.4-18.4v-19.7h-66.3
		c0.6,72.9-0.1,262.8-0.3,332.1h66.6V481.2c0-16.4,1.8-28.5,5.7-38.1c6.3-15.7,16.2-29.3,28.5-39.4c15.4-12.6,34.4-19.1,54.9-19.1
		c36.2,0,56.1,18,66.3,33c12.1,17.6,18.1,41.8,18.1,71.8L485.2,652.7L485.2,652.7z M154.9,703H37.8c-13.9,0-25.2-11.3-25.2-25.2
		V295.6c0-13.9,11.3-25.2,25.2-25.2h117.1c13.9,0,25.2,11.3,25.2,25.2V678C180.1,691.8,168.8,703,154.9,703z M63,652.7h66.7v-332H63
		V652.7z M96.3,250.5h-0.7c-25.3,0-48.2-8.9-64.6-25c-16.3-15.9-25.3-37.5-25.3-61.1c0-24,9.3-45.9,26.1-61.7
		c16.6-15.6,39.8-24.3,65.3-24.3c25.9,0,48.3,8.5,64.9,24.6c16,15.5,25.2,37.1,25.7,60.9c0,0.2,0,0.4,0,0.6
		c0,23.7-9.1,45.5-25.6,61.3C145.6,241.7,122.2,250.5,96.3,250.5z M97.1,128.7c-25,0-41.1,14-41.1,35.6c0,21.3,15.9,35.7,39.6,35.7
		h0.8c24.9,0,41-13.9,41.1-35.4C136.8,142.1,121.8,128.7,97.1,128.7z"/>
</g>
<script  type="text/javascript">
	<![CDATA[
		 var c=window.location.search.split('color=')[1]; c=parseInt(c,16); if(!isNaN(c)){c=c.toString(16);var p=document.getElementsByTagName('path');for(var i=0,l=p.length;i<l;i++){var s=p[i].style;s.fill='#'+c;}} 
		]]>
</script>
</svg>
