<svg viewBox="-1.000 -1.000 51.000 66.000" preserveAspectRatio="xMidYMid meet" xmlns="http://www.w3.org/2000/svg">
	<g>
		<title>Layer 1</title>
		<g id="svg_pointer">
			 <path d="M27.990,62.413 C27.954,62.453 26.564,64.007 24.839,64.007 C24.833,64.007 24.691,64.007 24.687,64.007 C22.961,64.007 21.562,62.453 21.529,62.413 C12.867,52.451 -0.010,38.277 -0.010,24.417 C-0.010,11.182 11.101,0.007 24.219,0.007 C39.324,0.007 47.990,11.182 47.990,24.417 C47.990,37.660 36.119,53.068 27.990,62.413 ZM24.219,4.007 C13.253,4.007 3.990,13.354 3.990,24.417 C3.990,36.205 15.236,49.107 23.448,58.527 C23.448,58.527 24.495,59.730 24.495,59.730 C24.568,59.800 24.669,59.880 24.760,59.943 C24.851,59.880 24.952,59.800 25.023,59.730 C37.609,45.248 43.990,33.367 43.990,24.417 C43.990,14.257 37.876,4.007 24.219,4.007 ZM24.061,36.119 C17.434,36.119 12.061,30.746 12.061,24.119 C12.061,17.492 17.434,12.119 24.061,12.119 C30.688,12.119 36.061,17.492 36.061,24.119 C36.061,30.746 30.688,36.119 24.061,36.119 ZM23.969,16.031 C19.558,16.031 15.969,19.620 15.969,24.031 C15.969,28.443 19.649,32.119 24.061,32.119 C28.473,32.119 31.969,28.443 31.969,24.031 C31.969,19.620 28.381,16.031 23.969,16.031 Z" id="path-1" fill="#1b1b1b" fill-rule="evenodd"/>
		</g>
	</g>
	<script type="text/javascript">
		<![CDATA[ var c=window.location.search.split('color=')[1]; c=parseInt(c,16); if(!isNaN(c)){c=c.toString(16);var p=document.getElementsByTagName('path');for(var i=0,l=p.length;i<l;i++){var s=p[i].style;s.fill='#'+c;}} ]]>
	</script>
</svg>