<svg version="1.1" xmlns="http://www.w3.org/2000/svg" xmlns:xlink="http://www.w3.org/1999/xlink" x="0px" y="0px"
	 viewBox="0 0 100 100" style="enable-background:new 0 0 100 100;" xml:space="preserve">
<g id="Vrstva_155">
	<g>
		<g>
			<path d="M70,97c-0.628,0-1.213-0.397-1.423-1.025L54.201,52.848c-0.262-0.786,0.163-1.636,0.949-1.897
				c0.786-0.261,1.635,0.163,1.897,0.948l14.376,43.127c0.262,0.786-0.163,1.636-0.949,1.897C70.317,96.976,70.157,97,70,97z"/>
		</g>
		<g>
			<path d="M30,97c-0.157,0-0.317-0.024-0.474-0.077c-0.786-0.262-1.211-1.111-0.949-1.897L43.102,51.45
				c0.262-0.785,1.112-1.21,1.897-0.948c0.786,0.262,1.211,1.111,0.949,1.897L31.423,95.975C31.213,96.603,30.628,97,30,97z"/>
		</g>
		<g>
			<path d="M70,97c-0.384,0-0.768-0.146-1.061-0.439l-29.25-29.25c-0.586-0.586-0.586-1.535,0-2.121
				c0.586-0.586,1.535-0.586,2.121,0l29.25,29.25c0.586,0.586,0.586,1.535,0,2.121C70.768,96.854,70.384,97,70,97z"/>
		</g>
		<g>
			<path d="M30,97c-0.384,0-0.768-0.146-1.061-0.439c-0.586-0.586-0.586-1.535,0-2.121l29.125-29.125
				c0.586-0.586,1.535-0.586,2.121,0c0.586,0.586,0.586,1.535,0,2.121L31.06,96.561C30.768,96.854,30.384,97,30,97z"/>
		</g>
		<g>
			<path d="M50,46.25c-5.928,0-10.75-4.822-10.75-10.75S44.072,24.75,50,24.75c5.928,0,10.75,4.822,10.75,10.75
				S55.928,46.25,50,46.25z M50,27.75c-4.273,0-7.75,3.477-7.75,7.75s3.477,7.75,7.75,7.75c4.273,0,7.75-3.477,7.75-7.75
				S54.273,27.75,50,27.75z"/>
		</g>
		<g>
			<path d="M70,37c-0.829,0-1.5-0.672-1.5-1.5C68.5,25.299,60.201,17,50,17c-10.201,0-18.5,8.299-18.5,18.5
				c0,0.828-0.671,1.5-1.5,1.5c-0.829,0-1.5-0.672-1.5-1.5C28.5,23.645,38.145,14,50,14s21.5,9.645,21.5,21.5
				C71.5,36.328,70.829,37,70,37z"/>
		</g>
		<g>
			<path d="M81,37c-0.829,0-1.5-0.672-1.5-1.5C79.5,19.233,66.266,6,50,6C33.734,6,20.5,19.233,20.5,35.5c0,0.828-0.671,1.5-1.5,1.5
				c-0.829,0-1.5-0.672-1.5-1.5C17.5,17.579,32.08,3,50,3c17.92,0,32.5,14.579,32.5,32.5C82.5,36.328,81.829,37,81,37z"/>
		</g>
	</g>
</g>
<script  type="text/javascript">
    <![CDATA[
         var c=window.location.search.split('color=')[1]; c=parseInt(c,16); if(!isNaN(c)){c=c.toString(16);var p=document.getElementsByTagName('path');for(var i=0,l=p.length;i<l;i++){var s=p[i].style;s.fill='#'+c;} var p2=document.getElementsByTagName('polygon');for(var i=0,l=p2.length;i<l;i++){var s=p2[i].style;s.fill='#'+c;} var p3=document.getElementsByTagName('circle');for(var i=0,l=p3.length;i<l;i++){var s=p3[i].style;s.fill='#'+c;} }
        ]]>
</script>
</svg>
