<svg viewBox="-1.000 -1.000 69.000 39.000" preserveAspectRatio="xMidYMid meet" xmlns="http://www.w3.org/2000/svg">
	<g>
		<title>Layer 1</title>
		<g id="svg_youtube">
			<path d="M58.827,43.220 C57.101,44.462 52.274,46.112 32.014,46.112 C10.294,46.112 7.093,44.220 6.061,43.598 C0.696,40.376 0.063,27.346 -0.003,23.430 C0.046,20.466 0.567,5.843 6.065,2.540 C7.099,1.917 10.317,0.013 32.014,0.013 C52.261,0.013 57.093,1.671 58.827,2.919 C63.643,6.388 64.054,19.471 64.065,23.380 C64.052,28.239 63.513,39.848 58.827,43.220 ZM56.491,6.165 C55.790,5.661 51.776,4.013 32.014,4.013 C12.915,4.013 8.888,5.509 8.128,5.968 C6.220,7.112 4.155,13.993 3.997,23.419 C4.157,32.866 6.194,39.013 8.124,40.171 C8.882,40.628 12.894,42.112 32.014,42.112 C51.792,42.112 55.794,40.475 56.491,39.973 C58.192,38.749 60.038,33.038 60.065,23.391 C60.038,13.895 58.204,7.399 56.491,6.165 ZM27.061,35.962 C26.745,36.153 26.386,36.249 26.028,36.249 C25.690,36.249 25.350,36.163 25.046,35.991 C24.417,35.636 24.028,34.970 24.028,34.249 C24.028,34.249 24.028,12.159 24.028,12.159 C24.028,11.438 24.417,10.772 25.046,10.417 C25.673,10.063 26.442,10.073 27.061,10.446 C27.061,10.446 45.058,21.489 45.058,21.489 C45.657,21.850 46.024,22.501 46.024,23.202 C46.024,23.903 45.657,24.552 45.058,24.915 C45.058,24.915 27.061,35.962 27.061,35.962 ZM28.028,15.700 C28.028,15.700 28.028,30.706 28.028,30.706 C28.028,30.706 40.153,23.202 40.153,23.202 C40.153,23.202 28.028,15.700 28.028,15.700 Z" id="path-1" fill="#1b1b1b" fill-rule="evenodd"/>
		</g>
	</g>
	<script type="text/javascript">
		<![CDATA[ var c=window.location.search.split('color=')[1]; c=parseInt(c,16); if(!isNaN(c)){c=c.toString(16);var p=document.getElementsByTagName('path');for(var i=0,l=p.length;i<l;i++){var s=p[i].style;s.fill='#'+c;}} ]]>
	</script>
</svg>